<svg width="32" height="32" viewBox="0 0 32 32" fill="none" xmlns="http://www.w3.org/2000/svg">
<path d="M15.9933 22.2357V18.853" stroke="#F7931E" stroke-width="1.5" stroke-linecap="round" stroke-linejoin="round"/>
<path fill-rule="evenodd" clip-rule="evenodd" d="M24.2532 7.10693C26.5065 7.10693 28.3198 8.9336 28.3198 11.1869V15.7736C25.0398 17.6936 20.7065 18.8536 15.9865 18.8536C11.2665 18.8536 6.9465 17.6936 3.6665 15.7736V11.1736C3.6665 8.92027 5.49317 7.10693 7.7465 7.10693H24.2532Z" stroke="#F7931E" stroke-width="1.5" stroke-linecap="round" stroke-linejoin="round"/>
<path d="M20.66 7.10105V6.61305C20.66 4.98638 19.34 3.66638 17.7133 3.66638H14.2733C12.6467 3.66638 11.3267 4.98638 11.3267 6.61305V7.10105" stroke="#F7931E" stroke-width="1.5" stroke-linecap="round" stroke-linejoin="round"/>
<path d="M3.69922 20.644L3.95122 23.9894C4.12189 26.244 6.00055 27.9867 8.26055 27.9867H23.7259C25.9859 27.9867 27.8646 26.244 28.0352 23.9894L28.2872 20.644" stroke="#F7931E" stroke-width="1.5" stroke-linecap="round" stroke-linejoin="round"/>
</svg>
