<svg width="32" height="32" viewBox="0 0 32 32" fill="none" xmlns="http://www.w3.org/2000/svg">
<path fill-rule="evenodd" clip-rule="evenodd" d="M21.779 3.66675H10.2203C6.19233 3.66675 3.66699 6.51875 3.66699 10.5547V21.4454C3.66699 25.4814 6.18033 28.3334 10.2203 28.3334H21.7777C25.819 28.3334 28.3337 25.4814 28.3337 21.4454V10.5547C28.3337 6.51875 25.819 3.66675 21.779 3.66675Z" stroke="#F7931E" stroke-width="1.5" stroke-linecap="round" stroke-linejoin="round"/>
<path fill-rule="evenodd" clip-rule="evenodd" d="M14.2521 16.0001C14.2521 17.3641 13.1468 18.4694 11.7828 18.4694C10.4188 18.4694 9.31348 17.3641 9.31348 16.0001C9.31348 14.6361 10.4188 13.5308 11.7828 13.5308H11.7868C13.1481 13.5321 14.2521 14.6374 14.2521 16.0001Z" stroke="#F7931E" stroke-width="1.5" stroke-linecap="round" stroke-linejoin="round"/>
<path d="M14.2563 16.0001H22.6803V18.4695" stroke="#F7931E" stroke-width="1.5" stroke-linecap="round" stroke-linejoin="round"/>
<path d="M18.9093 18.4696V16.0002" stroke="#F7931E" stroke-width="1.5" stroke-linecap="round" stroke-linejoin="round"/>
</svg>
