<svg width="39" height="35" viewBox="0 0 39 35" fill="none" xmlns="http://www.w3.org/2000/svg">
<path d="M18.2495 6.54152L19.5005 8.43312L20.7517 6.5416C22.4563 3.96453 25.2638 2.4458 28.3601 2.4458C33.3981 2.4458 37.5003 6.54839 37.5 11.5905V11.5906C37.5 16.2728 34.534 21.4619 28.3392 26.547C26.0269 28.4451 23.6896 29.9767 21.9199 31.0382C20.8582 31.6749 20.0081 32.1382 19.5004 32.4056C18.1536 31.6961 14.3824 29.6011 10.6612 26.5471C4.4663 21.4616 1.5 16.2724 1.5 11.5906C1.5 6.54856 5.60263 2.4458 10.6414 2.4458C13.7369 2.4458 16.5452 3.9646 18.2495 6.54152Z" stroke="#F7931E" stroke-width="3"/>
</svg>
