<svg width="89" height="43" viewBox="0 0 89 43" fill="none" xmlns="http://www.w3.org/2000/svg">
<g clip-path="url(#clip0_650_2178)">
<path d="M61.18 16.1836C60.7487 13.7973 59.5984 11.5541 57.9209 9.64498C57.7771 9.5018 57.6333 9.35862 57.4895 9.21543C57.3937 9.11998 57.2978 8.9768 57.154 8.88134C57.1061 8.83361 57.0582 8.78589 57.0103 8.73816C56.2913 8.02225 55.4286 7.35406 54.518 6.73361C51.882 4.91996 48.6228 3.67905 45.0762 2.96314C40.6668 2.10404 35.7302 2.05632 30.7936 3.01087C25.857 3.96542 21.3038 5.73133 17.5175 8.16543C17.3737 8.26088 17.2299 8.35634 17.0861 8.45179C16.8944 8.59497 16.7027 8.69043 16.5589 8.83361C16.3193 8.9768 16.0796 9.16771 15.8879 9.31089C13.5395 11.0291 11.5744 13.0336 10.0886 15.1814C9.46555 16.1359 8.89041 17.0905 8.45906 18.0927C7.26085 20.8609 6.87743 23.7246 7.40464 26.4928C7.64428 27.7337 8.12356 28.9269 8.6987 30.0723C8.74662 30.1678 8.79455 30.2155 8.84248 30.3109C8.89041 30.4064 8.93834 30.5019 8.98627 30.5496C9.70519 31.7905 10.6638 32.936 11.7661 33.986C14.6897 36.7542 18.8595 38.7587 23.6523 39.7133C25.8091 40.1428 28.1096 40.3814 30.506 40.3814C32.9024 40.3814 35.3468 40.1428 37.839 39.6655C42.9673 38.711 47.6643 36.7542 51.5465 34.1769C54.4221 32.2678 56.8186 29.9769 58.496 27.4473C58.5919 27.3041 58.6877 27.1609 58.7836 26.97C58.8795 26.8268 58.9753 26.6359 59.0712 26.4928C59.167 26.3496 59.2629 26.1587 59.3587 26.0155C59.6463 25.5382 59.8859 25.0132 60.0777 24.5359C61.3717 21.72 61.7551 18.9041 61.18 16.1836ZM26.6718 14.8473L26.7197 14.7518C27.3907 12.0313 30.4581 9.83589 34.3403 8.92907C33.19 10.4086 32.6148 12.2223 32.6628 14.1313C32.6628 14.5609 32.7107 14.895 32.7107 15.2768C32.8066 16.8041 32.9024 18.1404 32.1356 20.9564V21.0518C31.848 22.3882 32.5669 23.4859 33.0462 24.2018L30.0747 31.8382H20.3452L26.6718 14.8473Z" fill="white"/>
<path d="M40.1396 7.54517C42.7756 7.92699 46.4661 9.54972 45.5075 14.3702C44.7407 18.427 41.6253 19.0952 40.2834 20.4316C38.0307 21.6725 39.0372 24.2975 35.9219 24.2498C37.0242 24.3929 37.9349 24.3452 38.2704 24.3452C45.3637 24.3452 51.163 20.6225 51.163 15.8975C51.163 11.6497 46.4182 8.1179 40.1396 7.54517Z" fill="#535353"/>
<path fill-rule="evenodd" clip-rule="evenodd" d="M32.1345 21.0039V20.9084C32.9013 18.1402 32.8055 16.8039 32.7096 15.2288C32.6617 14.847 32.6617 14.4652 32.6617 14.0834C32.6138 12.1743 33.1889 10.3606 34.3392 8.8811C30.4091 9.78792 27.3896 11.9834 26.7186 14.7038L26.6707 14.7993L20.3921 31.7425H30.1215L33.0931 24.1061C32.5659 23.4857 31.8949 22.3402 32.1345 21.0039Z" fill="#535353"/>
<path d="M67.9862 14.8479C67.3152 11.1728 65.0146 7.92738 61.3721 5.44556C54.2787 0.577361 42.3925 -0.99765 30.4584 1.24554C18.6202 3.48873 8.26769 9.31148 3.42695 16.4229C0.886763 20.0979 -0.0238688 24.0115 0.647125 27.7343C1.36605 31.4093 3.71452 34.6547 7.40499 37.1366C12.3895 40.4775 19.5787 42.2434 27.4869 42.2434C30.9377 42.2434 34.5802 41.9093 38.1749 41.1934C50.0131 38.9502 60.3656 33.1275 65.2063 26.0161C67.7465 22.3888 68.7051 18.5229 67.9862 14.8479ZM58.5443 27.4002C56.8189 29.9297 54.4225 32.2206 51.5947 34.1297C47.7126 36.707 43.0156 38.6638 37.8873 39.6184C35.395 40.0957 32.9028 40.3343 30.5543 40.3343C28.1579 40.3343 25.8573 40.0957 23.7006 39.6661C18.8598 38.7116 14.738 36.707 11.8144 33.9388C10.712 32.8888 9.75347 31.7434 9.03454 30.5024C8.98662 30.407 8.93869 30.3115 8.89076 30.2638C8.84283 30.1684 8.7949 30.1206 8.74698 30.0252C8.17184 28.9274 7.69256 27.7343 7.45291 26.4456C6.92571 23.6774 7.2612 20.8138 8.50734 18.0456C8.93869 17.0433 9.4659 16.0888 10.1369 15.1342C11.6227 12.9865 13.5877 10.9819 15.9362 9.26375C16.1759 9.12057 16.3676 8.92966 16.6072 8.78648C16.7989 8.6433 16.9427 8.54784 17.1344 8.40466C17.2782 8.3092 17.422 8.21375 17.5658 8.11829C21.3521 5.68419 25.9053 3.91828 30.8419 2.96373C35.7785 2.00918 40.715 2.00918 45.1244 2.916C48.6711 3.63191 51.8823 4.87283 54.5663 6.68647C55.4769 7.30693 56.2917 7.97511 57.0585 8.69102C57.1065 8.73875 57.1544 8.78648 57.2023 8.8342C57.2982 8.92966 57.394 9.07284 57.5378 9.1683C57.6816 9.31148 57.8254 9.45466 57.9692 9.59784C59.6467 11.5069 60.7969 13.7501 61.2283 16.1365C61.7555 18.857 61.42 21.6729 60.2218 24.3933C59.9822 24.9183 59.7425 25.3956 59.5029 25.8729C59.407 26.0161 59.3112 26.207 59.2153 26.3502C59.1195 26.4933 59.0236 26.6843 58.9277 26.8274C58.736 27.1138 58.6881 27.257 58.5443 27.4002Z" fill="#535353"/>
</g>
<defs>
<clipPath id="clip0_650_2178">
<rect width="88" height="42" fill="white" transform="translate(0.434082 0.243408)"/>
</clipPath>
</defs>
</svg>
